<svg xmlns="http://www.w3.org/2000/svg" width="28" height="27" viewBox="0 0 28 27">
    <path fill="#238FDF" fill-rule="evenodd" d="M27.703 7.749c.248.309.34.68.279 1.112l-1.174 6.734c-.041.35-.201.638-.48.865-.277.226-.591.34-.941.34H8.274l-.34 1.915h16.31c.391 0 .73.139 1.02.417.288.278.432.623.432 1.034 0 .412-.144.757-.433 1.035a1.42 1.42 0 0 1-1.02.417H6.205c-.432 0-.803-.175-1.112-.525a1.5 1.5 0 0 1-.34-1.204l.773-4.201-1.174-11.8-3.336-1.05a1.367 1.367 0 0 1-.85-.711 1.535 1.535 0 0 1-.108-1.112C.181.624.423.34.783.165A1.51 1.51 0 0 1 1.88.057l4.262 1.36c.268.082.49.236.665.463.175.226.283.484.324.772L7.378 5l19.337 2.162c.432.062.762.257.988.587zM8.397 22.42c.618 0 1.143.217 1.576.65.432.431.649.957.649 1.574 0 .618-.217 1.149-.65 1.591a2.12 2.12 0 0 1-1.575.664 2.12 2.12 0 0 1-1.575-.664 2.196 2.196 0 0 1-.649-1.59c0-.618.217-1.144.65-1.576a2.144 2.144 0 0 1 1.574-.649zm13.19 0c.618 0 1.143.217 1.576.65.432.431.648.957.648 1.574 0 .618-.216 1.149-.648 1.591a2.12 2.12 0 0 1-1.576.664 2.12 2.12 0 0 1-1.575-.664 2.196 2.196 0 0 1-.649-1.59c0-.618.216-1.144.649-1.576a2.144 2.144 0 0 1 1.575-.649z"/>
</svg>
