<svg xmlns="http://www.w3.org/2000/svg" width="24" height="24" viewBox="0 0 24 24">
    <path fill="#111111" fill-rule="evenodd" d="M19.835 6.162a.54.54 0 0 0-.39-.162h-8.89a.54.54 0 0 0-.39.162.52.52 0 0 0-.165.383v1.637H8.611a1.36 1.36 0 0 0-.508.11 1.331 1.331 0 0 0-.438.273l-1.719 1.688c-.075.074-.14.159-.195.256a1.539 1.539 0 0 0-.122.26 1.39 1.39 0 0 0-.056.315 8.384 8.384 0 0 0-.022.294 6.04 6.04 0 0 0 0 .324l.005.298v2.727c-.15 0-.281.054-.391.162a.52.52 0 0 0-.165.384c0 .085.011.16.035.226a.323.323 0 0 0 .117.157c.055.04.103.073.143.098.04.026.109.043.204.051l.195.018c.035.002.109.002.222 0l.195-.005h.556c0 .602.217 1.117.65 1.543.435.426.958.639 1.572.639.613 0 1.137-.213 1.571-.64.434-.425.651-.94.651-1.542h3.334c0 .602.217 1.117.65 1.543.434.426.958.639 1.572.639.613 0 1.137-.213 1.57-.64.435-.425.652-.94.652-1.542l.195.005c.113.002.187.002.221 0l.196-.018a.485.485 0 0 0 .204-.05c.04-.026.088-.059.143-.099a.323.323 0 0 0 .117-.157.668.668 0 0 0 .035-.226V6.546a.52.52 0 0 0-.165-.384zM9.67 16.585c-.22.216-.48.324-.781.324-.301 0-.562-.108-.781-.324a1.039 1.039 0 0 1-.33-.767c0-.295.11-.551.33-.767.22-.216.48-.324.78-.324.302 0 .562.108.782.324.22.216.33.472.33.767 0 .296-.11.552-.33.767zm.33-5.13H6.667v-.256c0-.074.026-.136.078-.188L8.437 9.35a.262.262 0 0 1 .191-.077H10v2.182zm7.448 5.13c-.22.216-.48.324-.781.324-.301 0-.562-.108-.782-.324a1.039 1.039 0 0 1-.33-.767c0-.295.11-.551.33-.767.22-.216.48-.324.782-.324.3 0 .561.108.78.324.22.216.33.472.33.767 0 .296-.11.552-.33.767z"/>
</svg>
