<svg xmlns="http://www.w3.org/2000/svg" width="60" height="96" viewBox="0 0 60 96">
    <path fill="#ED9842" fill-rule="evenodd" d="M57.352 88.736c-2.13-2.123-8.345-6.021-12.092-7.183a31.545 31.545 0 0 1-4.195-1.636c3.024-6.045 2.085-13.684-3.091-18.843l-4.152-4.137c.388-2.253.31-4.621-.321-6.97l-1.52-5.65a16.231 16.231 0 0 0 3.218-6.198l1.52-5.653a16.308 16.308 0 0 0 5.894-3.762l4.64-4.625a3.262 3.262 0 0 0 0-4.624 16.323 16.323 0 0 0-11.599-4.789c-.783 0-1.557.057-2.319.164.107-.76.164-1.531.164-2.312 0-4.367-1.706-8.472-4.805-11.56a3.29 3.29 0 0 0-4.64 0l-4.639 4.624c-5.552 5.533-6.25 13.952-2.325 20.207a16.3 16.3 0 0 0-7.864-4.763 3.283 3.283 0 0 0-4.018 2.312l-1.699 6.317c-2.032 7.559 1.586 15.198 8.123 18.658a16.34 16.34 0 0 0-9.2-.205 3.269 3.269 0 0 0-2.32 4.005l1.699 6.317c2.018 7.506 8.984 12.385 16.458 12.107a16.317 16.317 0 0 0-8.133 4.41 3.263 3.263 0 0 0 0 4.624l4.64 4.625c6.142 6.122 15.78 6.305 22.148.957a37.7 37.7 0 0 0 6.388 2.645c1.968.61 6.75 2.922 9.4 5.563l1.687 1.681a3.289 3.289 0 0 0 4.64 0 3.263 3.263 0 0 0 0-4.624l-1.687-1.682zM9.847 31.347l.705-2.621c3.277 2.237 5.065 6.428 3.935 10.63l-.705 2.623c-3.275-2.237-5.065-6.428-3.935-10.632zM8.15 56.737l-.705-2.622c3.957.305 7.61 3.04 8.741 7.246l.704 2.617c-4.04-.318-7.633-3.124-8.74-7.241zm21.39-33.408c2.98-2.36 7.026-2.748 10.358-1.166l-1.923 1.916c-2.9 2.89-7.173 3.595-10.744 2.117a36.285 36.285 0 0 1 2.309-2.867zm-5.484-13.123l1.926-1.92c1.715 3.572 1.16 8.092-1.926 11.168l-1.926 1.92c-1.715-3.572-1.161-8.091 1.926-11.168zm-2.9 29.841c1.382-3.566 4.708-5.947 8.41-6.24l-.704 2.618c-1.061 3.947-4.407 6.687-8.24 7.188.118-1.203.297-2.392.534-3.566zm2.466 21.952a35.393 35.393 0 0 1-1.309-3.325c-.61-3.79 1.077-7.528 4.148-9.632l.703 2.617c1.063 3.952-.466 7.997-3.542 10.34zM19.415 79.57l-1.922-1.916c3.658-1.737 8.178-1.098 11.202 1.916l1.925 1.92c-3.583 1.709-8.118 1.156-11.205-1.92zm16.011-3.085a39.718 39.718 0 0 1-2.779-2.3 9.715 9.715 0 0 1-2.196-6.176c0-1.49.331-2.927.958-4.232l1.925 1.92c2.922 2.911 3.619 7.213 2.092 10.788z"/>
</svg>
