<svg xmlns="http://www.w3.org/2000/svg" width="24" height="24" viewBox="0 0 24 24">
    <path fill="#CCC" fill-rule="evenodd" d="M19.757 19.573l-3.945-3.96a6.307 6.307 0 0 0 1.57-4.153c0-3.562-3.001-6.46-6.69-6.46C7.001 5 4 7.898 4 11.46s3.002 6.46 6.691 6.46a6.784 6.784 0 0 0 3.834-1.169l3.974 3.99c.166.167.39.259.629.259a.885.885 0 0 0 .605-.235.823.823 0 0 0 .024-1.192zM10.69 6.685c2.727 0 4.946 2.142 4.946 4.775 0 2.633-2.219 4.775-4.946 4.775s-4.945-2.142-4.945-4.775c0-2.633 2.218-4.775 4.945-4.775z"/>
</svg>
