<svg xmlns="http://www.w3.org/2000/svg" width="24" height="24" viewBox="0 0 24 24">
    <g fill="none" fill-rule="evenodd">
        <path fill="#FFF" d="M11.74 12c-2.004 0-3.629-1.79-3.629-4s.534-4 3.63-4 3.63 1.79 3.63 4-1.626 4-3.63 4zm6.734 5.603c.004.245.006.287.007.266v.297S17.49 20 11.741 20 5 18.166 5 18.166L5 17.764c.001.035.004.02.01-.285.076-3.723.654-4.797 4.777-5.479 0 0 .586.686 1.954.686 1.367 0 1.954-.686 1.954-.686 4.168.69 4.713 1.78 4.779 5.603z"/>
        <path fill="#238FDF" d="M16.527 21.635a1.106 1.106 0 0 1-1.643 0l-2.544-2.73a1.311 1.311 0 0 1 0-1.762 1.106 1.106 0 0 1 1.642 0l1.516 1.626a.28.28 0 0 0 .415 0l4.105-4.404a1.106 1.106 0 0 1 1.642 0c.218.233.34.55.34.88 0 .331-.122.648-.34.882l-5.133 5.508z"/>
    </g>
</svg>
