<svg id="Слой_1" data-name="Слой 1" xmlns="http://www.w3.org/2000/svg" viewBox="0 0 24 24"><defs><style>.cls-1{fill:#fff;stroke:#000;stroke-miterlimit:10;}.cls-2{fill:#238fdf;}</style></defs><title>Монтажная область 1</title><path class="cls-1" d="M11.74,12A3.83,3.83,0,0,1,8.11,8c0-2.21.54-4,3.63-4s3.63,1.79,3.63,4a3.83,3.83,0,0,1-3.63,4Zm6.73,5.6c0,.25,0,.29,0,.27v.3S17.49,20,11.74,20,5,18.17,5,18.17v-.41a2.09,2.09,0,0,0,0-.28c.08-3.72.65-4.8,4.78-5.48a2.57,2.57,0,0,0,2,.69,2.61,2.61,0,0,0,2-.69C17.86,12.69,18.41,13.78,18.47,17.6Z"/><path class="cls-2" d="M16.53,21.64a1.13,1.13,0,0,1-1.57.08l-.08-.08-2.54-2.73a1.33,1.33,0,0,1,0-1.77,1.11,1.11,0,0,1,1.56-.08l.08.08,1.52,1.63a.28.28,0,0,0,.39,0l0,0L20,14.37a1.1,1.1,0,0,1,1.56-.08l.08.08a1.27,1.27,0,0,1,.34.88,1.29,1.29,0,0,1-.34.88Z"/></svg>